<svg id="icon-delete" xmlns="http://www.w3.org/2000/svg" width="26" height="26" viewBox="0 0 26 26">
  <path id="Path" d="M0,0H26V26H0Z" fill="none"/>
  <path id="Combined_Shape" data-name="Combined Shape" d="M5.606,17.68a2.61,2.61,0,0,1-2.594-2.417L2.153,3.12H.52a.52.52,0,1,1,0-1.04H5.4L6.3.287A.524.524,0,0,1,6.761,0h4.16a.518.518,0,0,1,.465.287l.9,1.792H17.16a.52.52,0,1,1,0,1.04H15.6l-.867,12.146a2.609,2.609,0,0,1-2.594,2.415ZM11.962,6.717l-.52,6.24a.519.519,0,0,0,.475.561.361.361,0,0,0,.045,0,.521.521,0,0,0,.517-.476L13,6.8a.522.522,0,0,0-.475-.562l-.043,0A.523.523,0,0,0,11.962,6.717ZM8.32,6.76V13a.52.52,0,0,0,1.04,0V6.76a.52.52,0,1,0-1.04,0ZM5.677,6.241A.522.522,0,0,0,5.2,6.8l.52,6.24a.522.522,0,0,0,.518.476.353.353,0,0,0,.044,0,.519.519,0,0,0,.475-.561l-.519-6.24a.524.524,0,0,0-.519-.477ZM11.12,2.08,10.6,1.04H7.082L6.562,2.08Z" transform="translate(4.16 4.16)" fill="#fff"/>
</svg>
